<svg id="svg" version="1.1" xmlns="http://www.w3.org/2000/svg" xmlns:xlink="http://www.w3.org/1999/xlink" width="400" height="400" viewBox="0, 0, 400,400"><g id="svgg"><path id="path0" d="M173.755 29.562 C 173.851 30.918,177.600 30.740,177.600 29.379 C 177.600 28.926,177.138 28.802,175.655 28.854 C 174.147 28.908,173.720 29.067,173.755 29.562 M164.518 30.975 C 164.324 31.321,163.415 31.600,162.231 31.675 C 160.923 31.758,160.200 32.000,160.068 32.400 C 159.892 32.933,159.952 32.933,160.610 32.400 C 161.284 31.853,161.325 31.865,161.075 32.533 C 160.906 32.984,160.966 33.211,161.230 33.123 C 161.466 33.045,161.641 32.805,161.617 32.590 C 161.555 32.034,164.408 31.721,165.617 32.151 C 167.293 32.747,171.081 32.100,171.322 31.176 C 171.588 30.160,165.082 29.967,164.518 30.975 M226.400 31.153 C 226.400 31.974,227.421 32.386,229.476 32.395 C 231.016 32.401,231.430 31.888,230.575 31.032 C 229.612 30.069,226.400 30.162,226.400 31.153 M232.083 31.870 C 231.335 32.171,232.270 33.200,233.292 33.200 C 233.851 33.200,234.014 33.013,233.843 32.567 C 233.709 32.219,233.600 31.859,233.600 31.767 C 233.600 31.549,232.739 31.607,232.083 31.870 M254.929 37.881 C 255.416 38.007,255.575 38.291,255.406 38.735 C 255.213 39.242,255.264 39.289,255.621 38.935 C 256.212 38.349,255.770 37.585,254.876 37.646 C 254.296 37.686,254.304 37.720,254.929 37.881 M107.840 123.415 C 105.589 123.873,105.371 123.983,102.728 126.000 C 101.238 127.137,98.119 131.178,96.599 133.943 C 96.077 134.891,95.914 288.700,96.434 289.021 C 97.026 289.387,126.275 289.525,126.857 289.165 C 127.182 288.964,127.284 271.152,127.233 223.345 C 127.157 152.089,127.051 155.545,129.363 153.818 C 130.389 153.051,131.018 153.000,139.352 153.000 L 148.246 153.000 149.623 154.146 C 151.381 155.608,153.415 158.638,153.722 160.250 C 153.853 160.938,154.531 162.346,155.228 163.379 C 155.925 164.413,156.733 166.046,157.023 167.009 C 157.313 167.972,158.754 170.511,160.225 172.652 C 161.717 174.821,163.257 177.618,163.705 178.972 C 164.147 180.307,164.733 181.670,165.007 182.000 C 165.449 182.531,167.086 185.481,169.822 190.672 C 170.995 192.899,171.681 192.417,174.004 187.728 C 176.105 183.488,178.867 178.651,179.292 178.467 C 179.462 178.393,179.600 178.138,179.600 177.898 C 179.600 177.659,179.847 177.179,180.149 176.831 C 180.450 176.484,181.009 175.210,181.391 174.000 C 181.773 172.790,182.518 171.126,183.046 170.303 C 183.575 169.479,184.457 167.859,185.005 166.703 C 185.554 165.546,186.452 163.988,187.002 163.241 C 188.407 161.327,188.101 159.177,186.197 157.598 C 185.837 157.298,185.178 156.341,184.734 155.471 C 184.290 154.600,183.621 153.560,183.248 153.159 C 182.874 152.758,182.228 151.482,181.811 150.322 C 181.394 149.163,180.456 147.432,179.726 146.476 C 178.997 145.521,178.397 144.438,178.392 144.069 C 178.388 143.701,177.849 142.590,177.195 141.600 C 175.550 139.111,175.383 138.816,174.585 137.000 C 173.830 135.280,173.794 135.212,172.040 132.200 C 169.734 128.241,169.033 127.200,168.677 127.200 C 168.478 127.200,167.411 126.481,166.308 125.602 C 165.204 124.723,163.599 123.815,162.740 123.584 C 160.593 123.006,110.609 122.852,107.840 123.415 M231.200 124.829 C 226.178 127.506,225.095 129.007,217.952 143.200 C 217.233 144.630,216.139 146.502,215.522 147.360 C 214.905 148.218,214.400 149.260,214.400 149.676 C 214.400 150.574,213.000 153.429,212.368 153.820 C 212.124 153.971,211.389 155.287,210.734 156.746 C 210.080 158.205,209.321 159.669,209.047 159.999 C 208.774 160.330,208.206 161.410,207.785 162.400 C 207.364 163.390,206.526 164.991,205.923 165.958 C 205.319 166.925,204.536 168.590,204.181 169.658 C 203.826 170.726,203.391 171.600,203.215 171.600 C 203.038 171.600,202.788 171.915,202.659 172.300 C 202.307 173.355,200.050 177.282,199.354 178.051 C 199.018 178.422,198.215 180.023,197.570 181.607 C 196.926 183.191,195.896 185.142,195.282 185.943 C 194.668 186.745,193.300 189.200,192.243 191.400 C 191.186 193.600,190.086 195.850,189.798 196.400 C 189.510 196.950,188.388 199.110,187.304 201.200 C 184.466 206.673,183.229 208.814,181.982 210.406 C 181.377 211.180,180.687 212.534,180.450 213.415 C 180.212 214.296,179.487 215.741,178.837 216.624 C 178.187 217.508,177.288 219.163,176.839 220.301 C 175.780 222.987,173.709 226.732,172.581 228.000 C 171.514 229.200,170.400 231.327,170.400 232.167 C 170.400 232.808,165.871 241.777,165.031 242.800 C 164.760 243.130,164.144 244.375,163.663 245.567 C 163.182 246.759,162.183 248.649,161.444 249.767 C 160.705 250.885,159.976 252.375,159.823 253.077 C 159.671 253.779,159.019 255.083,158.373 255.973 C 157.728 256.864,157.200 257.679,157.200 257.785 C 157.200 258.364,155.141 262.351,154.617 262.786 C 154.278 263.067,154.000 263.471,154.000 263.682 C 154.000 263.893,153.350 265.174,152.556 266.529 C 151.762 267.883,150.765 269.873,150.341 270.951 C 149.916 272.028,148.958 273.622,148.213 274.493 C 147.425 275.414,146.748 276.725,146.596 277.624 C 146.452 278.474,145.746 279.942,145.026 280.885 C 144.306 281.828,143.585 283.017,143.423 283.526 C 143.262 284.036,142.630 285.026,142.019 285.726 C 138.762 289.461,139.034 289.529,156.841 289.400 C 173.748 289.278,175.111 289.067,175.187 286.558 C 175.194 286.314,175.797 285.324,176.527 284.358 C 177.257 283.391,178.277 281.700,178.793 280.600 C 179.310 279.500,180.030 278.150,180.394 277.600 C 180.759 277.050,181.358 275.790,181.726 274.800 C 182.094 273.810,182.846 272.477,183.397 271.838 C 183.949 271.199,184.400 270.474,184.400 270.228 C 184.400 269.982,185.192 268.390,186.161 266.691 C 187.129 264.992,188.109 263.064,188.338 262.406 C 188.567 261.748,189.268 260.442,189.894 259.505 C 190.521 258.567,191.876 256.064,192.907 253.942 C 196.579 246.381,199.427 245.492,202.001 251.102 C 203.509 254.388,203.581 254.561,204.213 256.400 C 204.553 257.390,205.329 258.830,205.936 259.600 C 206.543 260.370,207.368 261.900,207.768 263.000 C 208.169 264.100,208.788 265.450,209.145 266.000 C 209.502 266.550,210.533 268.440,211.437 270.200 C 216.661 280.366,217.982 282.735,219.129 283.989 C 219.892 284.823,220.400 285.805,220.400 286.445 C 220.400 287.031,220.728 287.917,221.130 288.413 L 221.860 289.314 235.630 289.271 C 243.774 289.246,250.266 289.400,251.520 289.647 C 255.200 290.373,256.607 288.688,254.600 285.959 C 254.051 285.212,253.286 284.071,252.900 283.425 C 252.515 282.779,251.796 281.827,251.302 281.309 C 250.164 280.116,249.385 278.571,249.059 276.860 C 248.919 276.123,248.289 274.863,247.659 274.060 C 247.030 273.257,246.190 271.880,245.792 271.000 C 245.395 270.120,244.659 268.840,244.157 268.156 C 243.656 267.472,242.638 265.672,241.897 264.156 C 240.023 260.324,238.757 258.062,237.297 255.941 C 236.609 254.941,235.926 253.600,235.780 252.961 C 235.453 251.529,234.052 248.479,233.591 248.194 C 233.404 248.079,232.786 247.002,232.218 245.801 C 231.650 244.600,230.661 242.842,230.021 241.894 C 229.381 240.946,228.724 239.636,228.561 238.985 C 228.398 238.333,227.667 236.950,226.936 235.910 C 226.206 234.871,225.439 233.265,225.232 232.342 C 225.024 231.419,224.477 230.199,224.016 229.632 C 223.555 229.064,222.924 228.060,222.613 227.400 C 222.302 226.740,221.407 225.216,220.624 224.013 C 219.841 222.811,219.200 221.602,219.200 221.327 C 219.200 220.493,217.842 217.832,217.152 217.314 C 214.773 215.528,214.534 210.934,216.675 208.131 C 217.486 207.069,219.200 204.003,220.485 201.318 C 221.770 198.633,223.063 196.194,223.359 195.898 C 224.137 195.120,225.060 193.202,225.387 191.685 C 225.543 190.961,226.265 189.591,226.991 188.639 C 227.717 187.688,228.446 186.486,228.610 185.969 C 228.774 185.452,229.341 184.302,229.871 183.414 C 230.400 182.526,231.393 180.630,232.078 179.200 C 232.764 177.770,233.532 176.330,233.787 176.000 C 234.042 175.670,234.590 174.590,235.006 173.600 C 235.421 172.610,236.272 171.037,236.897 170.104 C 237.521 169.172,238.288 167.684,238.601 166.798 C 238.913 165.912,239.612 164.605,240.154 163.894 C 240.696 163.182,241.516 161.591,241.977 160.358 C 244.489 153.631,246.041 152.788,255.826 152.832 C 263.913 152.868,266.128 153.264,267.332 154.888 C 268.133 155.969,268.138 156.368,268.064 221.399 C 267.985 291.756,267.914 289.133,269.910 289.236 C 273.457 289.419,298.814 289.239,299.154 289.028 C 299.818 288.618,299.742 135.501,299.077 133.723 C 298.089 131.079,292.615 125.365,289.807 124.045 C 288.031 123.211,287.672 123.200,261.104 123.215 L 234.200 123.230 231.200 124.829 M353.600 137.567 C 353.600 138.058,353.858 138.400,354.229 138.400 C 354.602 138.400,354.806 138.128,354.729 137.733 C 354.535 136.730,353.600 136.592,353.600 137.567 M37.738 143.017 C 37.608 143.357,37.613 143.747,37.751 143.884 C 37.888 144.021,38.000 143.847,38.000 143.496 C 38.000 143.145,38.315 142.776,38.700 142.676 C 39.356 142.504,39.355 142.490,38.687 142.446 C 38.296 142.421,37.868 142.678,37.738 143.017 M36.600 147.200 C 36.736 147.420,36.657 147.600,36.424 147.600 C 36.189 147.600,36.000 148.391,36.000 149.371 C 36.000 150.712,35.830 151.191,35.300 151.348 C 34.754 151.509,34.776 151.536,35.400 151.474 C 36.042 151.409,36.225 151.051,36.324 149.668 C 36.428 148.225,36.542 148.020,37.020 148.416 C 37.470 148.790,37.641 148.757,37.831 148.264 C 38.134 147.473,37.731 146.800,36.953 146.800 C 36.623 146.800,36.464 146.980,36.600 147.200 M358.000 147.351 C 358.000 147.434,358.270 147.726,358.600 148.000 C 359.091 148.408,359.200 148.380,359.200 147.849 C 359.200 147.492,358.930 147.200,358.600 147.200 C 358.270 147.200,358.000 147.268,358.000 147.351 M31.867 166.267 C 31.720 166.413,31.600 167.474,31.600 168.624 C 31.600 170.010,31.418 170.784,31.060 170.922 C 30.558 171.114,30.517 171.564,30.730 174.600 C 30.856 176.398,31.926 175.763,32.247 173.700 C 32.502 172.057,32.581 171.935,32.831 172.800 C 33.111 173.768,33.122 173.771,33.160 172.887 C 33.182 172.386,32.918 171.867,32.574 171.735 C 31.835 171.451,31.828 166.806,32.566 166.306 C 32.877 166.096,32.877 166.011,32.567 166.006 C 32.328 166.003,32.013 166.120,31.867 166.267 M28.885 179.284 C 28.861 180.129,28.964 180.383,29.184 180.026 C 29.444 179.605,29.554 179.653,29.677 180.242 C 29.825 180.950,29.867 180.943,30.316 180.129 C 30.905 179.062,30.557 178.000,29.618 178.000 C 29.108 178.000,28.912 178.344,28.885 179.284 M30.838 236.101 C 30.396 237.263,30.645 238.543,31.242 238.174 C 31.439 238.052,31.600 238.983,31.600 240.243 C 31.600 243.212,31.903 242.904,32.035 239.800 C 32.092 238.480,32.274 237.307,32.441 237.194 C 32.608 237.080,32.409 236.542,31.999 235.998 L 31.253 235.009 30.838 236.101 M362.109 251.600 C 362.109 252.590,362.187 252.995,362.282 252.500 C 362.378 252.005,362.378 251.195,362.282 250.700 C 362.187 250.205,362.109 250.610,362.109 251.600 M360.800 254.000 C 360.800 254.930,361.305 255.037,361.961 254.247 C 362.317 253.818,362.275 253.638,361.777 253.447 C 360.848 253.090,360.800 253.118,360.800 254.000 M35.500 259.065 C 35.794 259.184,36.000 259.994,36.000 261.033 C 36.000 262.010,36.189 262.800,36.424 262.800 C 36.657 262.800,36.736 262.980,36.600 263.200 C 36.271 263.733,36.930 263.706,38.181 263.136 C 39.644 262.469,39.479 261.353,37.828 260.756 C 37.074 260.483,36.371 259.931,36.266 259.530 C 36.161 259.128,35.833 258.814,35.537 258.832 C 35.133 258.855,35.124 258.913,35.500 259.065 M59.600 307.576 C 59.600 308.223,59.742 308.841,59.916 308.948 C 60.090 309.056,60.161 308.527,60.073 307.772 C 59.876 306.091,59.600 305.977,59.600 307.576 M322.274 324.837 C 322.064 325.640,322.087 325.645,322.828 324.975 C 323.746 324.143,323.779 324.000,323.047 324.000 C 322.742 324.000,322.395 324.377,322.274 324.837 M74.800 328.009 C 74.800 328.224,75.076 328.400,75.413 328.400 C 75.749 328.400,76.129 328.670,76.255 329.000 C 76.382 329.330,76.641 329.600,76.830 329.600 C 77.020 329.600,77.081 329.354,76.965 329.054 C 76.705 328.375,74.800 327.455,74.800 328.009 M241.084 374.800 C 240.810 375.847,243.758 376.007,244.157 374.967 C 244.525 374.010,244.512 374.000,242.847 374.000 C 241.630 374.000,241.248 374.173,241.084 374.800 M236.684 376.400 C 236.569 376.840,236.638 377.200,236.837 377.200 C 237.037 377.200,237.200 377.026,237.200 376.813 C 237.200 376.599,237.440 376.517,237.733 376.630 C 238.036 376.746,238.267 376.567,238.267 376.217 C 238.267 375.310,236.929 375.465,236.684 376.400 M230.255 377.800 C 230.544 378.551,230.844 378.553,231.824 377.813 C 232.558 377.257,232.531 377.225,231.313 377.213 C 230.330 377.203,230.080 377.342,230.255 377.800 " stroke="none" fill="#eefaf9" fill-rule="evenodd"></path><path id="path1" d="M184.864 31.291 C 182.672 31.627,182.354 31.781,182.524 32.429 C 182.678 33.018,182.450 33.224,181.460 33.390 C 177.536 34.046,172.779 34.400,167.887 34.400 C 162.748 34.400,162.090 34.489,158.676 35.644 C 154.331 37.115,150.502 37.605,149.966 36.759 C 149.675 36.299,149.611 36.314,149.606 36.840 C 149.596 37.942,145.107 40.276,141.985 40.803 C 140.413 41.068,138.167 41.811,136.907 42.483 C 135.665 43.147,133.917 43.946,133.024 44.260 C 132.131 44.573,130.140 45.448,128.600 46.202 C 127.060 46.957,125.290 47.678,124.666 47.803 C 124.042 47.929,123.127 48.469,122.632 49.003 C 122.137 49.537,120.554 50.503,119.113 51.149 C 117.673 51.796,116.379 52.511,116.238 52.739 C 116.097 52.967,115.141 53.569,114.112 54.076 C 113.084 54.584,111.783 55.424,111.221 55.942 C 110.660 56.460,109.390 57.296,108.400 57.800 C 107.410 58.304,106.130 59.140,105.555 59.658 C 104.282 60.806,103.287 61.478,102.100 61.991 C 101.605 62.205,101.200 62.565,101.200 62.790 C 101.200 63.016,100.924 63.200,100.587 63.200 C 100.251 63.200,99.869 63.477,99.739 63.815 C 99.609 64.153,99.030 64.685,98.452 64.998 C 97.873 65.311,96.540 66.384,95.488 67.383 C 94.437 68.382,93.466 69.200,93.331 69.200 C 93.196 69.200,91.627 70.622,89.843 72.360 C 88.059 74.098,85.970 76.025,85.200 76.641 C 81.230 79.820,78.333 82.876,75.400 86.975 C 74.023 88.900,70.321 93.245,68.700 94.839 C 68.095 95.434,67.600 96.036,67.600 96.177 C 67.600 97.149,65.672 98.843,64.319 99.059 C 62.884 99.289,62.157 100.000,63.357 100.000 C 64.171 100.000,64.446 101.064,63.776 101.620 C 63.459 101.883,63.200 102.314,63.200 102.579 C 63.200 102.843,62.483 103.766,61.607 104.630 C 60.730 105.493,60.010 106.359,60.007 106.552 C 60.003 106.746,59.370 107.781,58.600 108.853 C 57.830 109.925,57.200 111.065,57.200 111.387 C 57.200 111.709,56.885 112.141,56.500 112.348 C 55.829 112.708,53.600 116.652,53.600 117.478 C 53.600 117.697,53.240 118.202,52.800 118.600 C 52.360 118.998,52.000 119.542,52.000 119.808 C 52.000 120.074,51.640 120.750,51.200 121.309 C 50.760 121.869,50.400 122.701,50.400 123.160 C 50.400 123.618,50.040 124.218,49.600 124.493 C 49.160 124.768,48.800 125.287,48.800 125.647 C 48.800 126.525,47.756 127.345,47.005 127.057 C 46.215 126.754,46.236 127.156,47.058 128.064 C 47.709 128.783,46.724 133.230,45.612 134.592 C 45.429 134.816,44.708 136.485,44.010 138.301 C 43.312 140.116,42.514 141.829,42.235 142.107 C 41.957 142.386,41.609 143.870,41.462 145.407 C 41.267 147.446,40.818 148.933,39.799 150.915 C 39.032 152.408,38.288 154.359,38.146 155.249 C 37.995 156.190,37.617 156.969,37.243 157.109 C 36.890 157.242,36.378 157.632,36.108 157.975 C 35.672 158.528,35.569 158.531,35.214 158.000 C 34.909 157.545,34.811 157.763,34.806 158.900 C 34.801 160.235,34.910 160.400,35.800 160.400 C 37.520 160.400,37.105 163.848,35.281 164.709 C 34.351 165.148,34.133 165.124,33.701 164.533 C 33.254 163.921,33.200 163.963,33.200 164.924 C 33.200 165.710,33.402 166.000,33.951 166.000 C 35.737 166.000,35.916 176.075,34.215 180.811 C 33.861 181.795,33.408 184.766,33.207 187.414 C 33.007 190.062,32.657 193.032,32.431 194.014 C 32.205 194.996,32.015 196.460,32.010 197.267 C 32.004 198.076,31.776 198.809,31.500 198.902 C 30.798 199.138,30.813 210.471,31.516 210.705 C 31.782 210.794,32.002 211.437,32.004 212.133 C 32.006 212.830,32.380 215.470,32.834 218.000 C 33.862 223.721,34.238 226.367,34.994 233.200 C 35.921 241.575,35.784 242.800,33.920 242.800 C 33.354 242.800,33.201 243.120,33.206 244.300 C 33.209 245.125,33.344 245.614,33.506 245.387 C 34.874 243.463,38.062 247.727,36.785 249.772 C 36.363 250.448,36.416 250.646,37.146 251.130 C 37.725 251.515,38.000 252.114,38.000 252.989 C 38.000 254.638,38.681 256.612,39.882 258.440 C 40.581 259.505,40.936 260.858,41.246 263.637 C 41.477 265.703,41.806 267.485,41.976 267.597 C 43.240 268.423,44.985 273.600,44.000 273.600 C 43.780 273.600,43.600 273.780,43.600 274.000 C 43.600 274.220,43.931 274.400,44.336 274.400 C 45.762 274.400,48.233 280.471,47.000 280.945 C 46.049 281.309,46.253 282.364,47.225 282.109 C 47.792 281.961,48.261 282.185,48.725 282.826 C 49.738 284.225,52.645 289.458,54.045 292.400 C 54.725 293.830,55.713 295.573,56.240 296.273 C 56.768 296.974,57.200 297.726,57.200 297.945 C 57.200 298.164,57.431 298.581,57.714 298.871 C 57.997 299.162,58.582 299.957,59.014 300.638 C 60.813 303.472,62.263 305.496,63.275 306.583 C 63.866 307.218,64.923 308.832,65.623 310.169 C 66.885 312.580,68.849 315.391,69.869 316.244 C 70.320 316.621,72.398 319.472,72.401 319.718 C 72.412 320.628,89.850 337.834,93.797 340.830 C 94.543 341.396,96.289 342.902,97.677 344.177 C 99.065 345.452,101.010 347.046,102.000 347.720 C 102.990 348.394,103.944 349.182,104.120 349.473 C 104.296 349.763,104.691 350.000,104.997 350.000 C 105.824 350.000,108.363 351.554,110.356 353.279 C 111.322 354.116,112.267 354.800,112.456 354.800 C 112.645 354.800,112.800 355.135,112.800 355.545 C 112.800 356.133,113.021 356.247,113.852 356.088 C 114.568 355.951,115.023 356.097,115.272 356.543 C 115.474 356.905,115.879 357.200,116.171 357.200 C 116.463 357.200,116.910 357.451,117.165 357.758 C 117.420 358.065,118.234 358.430,118.974 358.569 C 119.714 358.708,121.000 359.283,121.833 359.848 C 122.665 360.413,124.573 361.500,126.073 362.265 C 127.573 363.029,128.800 363.805,128.800 363.990 C 128.800 364.504,132.359 365.600,134.031 365.600 C 135.142 365.600,136.051 365.999,137.615 367.174 C 138.817 368.078,140.387 368.863,141.301 369.017 C 143.244 369.345,146.262 370.643,146.688 371.333 C 147.000 371.840,151.316 372.837,153.200 372.838 C 155.527 372.839,158.400 373.983,158.406 374.911 C 158.410 375.480,158.523 375.626,158.720 375.316 C 159.356 374.315,177.607 375.349,178.424 376.432 C 179.379 377.697,184.301 377.980,201.800 377.773 C 216.986 377.594,218.000 377.505,218.000 376.353 C 218.000 375.665,218.351 375.600,222.102 375.600 C 227.748 375.600,235.872 374.598,238.152 373.620 C 239.701 372.956,244.333 372.110,247.796 371.858 C 248.233 371.826,248.908 371.485,249.296 371.100 C 249.683 370.715,250.529 370.400,251.176 370.400 C 251.823 370.400,252.456 370.234,252.581 370.031 C 252.707 369.827,253.732 369.355,254.859 368.981 C 255.986 368.606,257.750 367.777,258.779 367.137 C 259.807 366.497,261.358 365.868,262.225 365.737 C 263.925 365.482,268.649 363.408,269.524 362.533 C 269.819 362.238,270.835 361.801,271.781 361.563 C 272.727 361.325,274.365 360.516,275.421 359.765 C 276.477 359.014,277.512 358.400,277.722 358.400 C 277.932 358.400,279.424 357.500,281.038 356.400 C 282.652 355.300,284.149 354.400,284.364 354.400 C 284.579 354.400,284.991 354.085,285.279 353.700 C 286.002 352.735,288.246 351.200,288.935 351.200 C 289.247 351.200,289.749 350.903,290.051 350.539 C 290.352 350.176,291.535 349.187,292.678 348.342 C 293.822 347.497,295.180 346.400,295.697 345.903 C 296.213 345.406,298.151 343.830,300.003 342.400 C 301.855 340.970,303.721 339.456,304.149 339.037 C 304.577 338.617,306.113 337.246,307.563 335.991 C 312.375 331.827,320.255 323.560,324.107 318.637 C 325.155 317.297,326.775 315.243,327.707 314.073 C 328.638 312.903,329.802 311.373,330.293 310.673 C 330.784 309.973,331.369 309.183,331.593 308.917 C 331.817 308.651,332.000 308.303,332.000 308.143 C 332.000 307.982,332.720 306.998,333.600 305.954 C 334.480 304.910,335.200 303.877,335.200 303.657 C 335.200 303.437,335.425 303.014,335.700 302.718 C 336.598 301.749,338.000 299.641,338.000 299.259 C 338.000 298.607,341.725 294.801,342.376 294.788 C 342.894 294.778,342.882 294.707,342.300 294.368 C 341.353 293.816,341.404 293.530,342.829 291.418 C 344.067 289.584,345.280 288.613,345.747 289.081 C 345.886 289.220,346.000 289.159,346.000 288.947 C 346.000 288.734,345.801 288.361,345.557 288.117 C 344.655 287.215,346.977 282.994,348.245 283.229 C 349.093 283.386,349.179 283.139,348.588 282.238 C 347.883 281.162,348.335 279.538,349.986 277.220 C 350.430 276.597,351.070 274.767,351.410 273.154 C 351.749 271.541,352.347 269.676,352.739 269.010 C 353.131 268.345,353.782 266.879,354.185 265.753 C 354.806 264.024,355.050 263.737,355.760 263.908 C 356.447 264.072,356.509 264.012,356.100 263.574 C 355.493 262.925,355.452 261.424,356.014 260.374 C 356.573 259.329,358.000 259.348,358.000 260.400 C 358.000 260.840,358.168 261.200,358.373 261.200 C 358.579 261.200,358.812 261.695,358.892 262.300 C 358.976 262.941,359.113 262.457,359.218 261.142 C 359.372 259.236,359.301 258.902,358.766 259.006 C 357.355 259.279,357.031 258.594,357.502 256.333 C 357.747 255.160,358.066 253.120,358.212 251.800 C 358.358 250.480,358.699 248.860,358.970 248.200 C 359.241 247.540,359.794 245.710,360.199 244.134 C 360.844 241.626,361.066 241.242,361.968 241.069 C 363.262 240.820,363.152 240.656,363.558 243.440 L 363.902 245.800 363.951 242.737 C 363.996 239.942,363.935 239.692,363.260 239.869 C 362.249 240.133,361.151 238.953,361.401 237.871 C 361.512 237.392,361.875 235.110,362.209 232.800 C 362.910 227.953,363.878 224.277,364.373 224.584 C 364.781 224.836,365.198 223.878,365.206 222.667 C 365.211 221.961,365.284 221.911,365.600 222.400 C 365.923 222.901,365.997 222.867,366.047 222.200 C 366.079 221.760,366.238 222.030,366.400 222.800 C 366.566 223.588,366.718 220.487,366.747 215.700 C 366.797 207.608,366.764 207.200,366.043 207.200 C 364.935 207.200,364.864 206.753,364.763 199.105 C 364.667 191.798,364.762 191.200,366.024 191.200 C 366.707 191.200,366.795 190.924,366.760 188.900 C 366.737 187.585,366.609 186.943,366.460 187.400 C 366.159 188.325,365.200 188.667,365.200 187.849 C 365.200 187.546,364.852 187.051,364.426 186.749 C 363.492 186.087,362.197 180.230,361.654 174.211 C 361.232 169.536,361.312 169.200,362.843 169.200 C 363.989 169.200,364.000 169.179,363.962 166.900 L 363.923 164.600 363.409 166.600 C 363.126 167.700,362.874 168.375,362.848 168.100 C 362.821 167.825,362.375 167.600,361.855 167.600 C 361.015 167.600,360.770 167.175,359.655 163.780 C 357.964 158.634,358.153 156.727,360.298 157.290 C 360.920 157.454,360.980 157.221,360.822 155.237 L 360.643 153.000 360.378 154.600 C 360.233 155.480,360.088 155.784,360.057 155.276 C 360.026 154.768,359.865 154.432,359.700 154.529 C 358.993 154.946,357.659 153.979,357.417 152.876 C 357.274 152.229,356.718 151.101,356.179 150.372 C 355.641 149.642,355.200 148.757,355.200 148.406 C 355.200 146.939,353.894 142.892,352.966 141.483 C 352.416 140.649,351.629 138.616,351.216 136.965 C 350.502 134.107,347.680 127.678,346.579 126.400 C 346.027 125.759,344.875 122.852,344.519 121.200 C 344.400 120.650,343.940 119.911,343.497 119.557 C 342.662 118.891,342.409 117.145,342.968 115.906 C 343.202 115.386,343.044 115.120,342.341 114.850 C 341.218 114.420,338.400 111.367,338.400 110.581 C 338.400 110.277,338.085 109.857,337.700 109.648 C 336.673 109.091,335.264 106.312,335.901 106.100 C 336.426 105.925,336.618 105.138,336.100 105.285 C 335.413 105.480,334.000 104.311,334.000 103.548 C 334.000 103.079,333.677 102.641,333.249 102.529 C 332.836 102.421,332.297 101.942,332.052 101.466 C 331.366 100.134,330.709 99.237,329.400 97.845 C 328.740 97.144,327.030 94.890,325.600 92.838 C 320.558 85.601,305.678 70.945,298.723 66.365 C 297.859 65.796,296.578 64.796,295.876 64.142 C 294.554 62.910,291.593 60.760,287.141 57.800 C 286.810 57.580,285.260 56.544,283.696 55.498 C 282.132 54.451,279.446 52.848,277.726 51.935 C 276.007 51.022,274.240 49.979,273.800 49.617 C 273.074 49.019,272.195 48.564,269.200 47.233 C 268.650 46.989,267.388 46.282,266.396 45.662 C 265.403 45.043,263.874 44.419,262.997 44.277 C 262.120 44.135,261.202 43.744,260.957 43.409 C 260.712 43.074,260.210 42.800,259.842 42.800 C 259.473 42.800,258.773 42.553,258.286 42.251 C 257.799 41.950,256.050 41.397,254.400 41.022 C 252.750 40.648,250.140 39.724,248.600 38.969 C 246.798 38.086,244.755 37.453,242.868 37.195 C 241.255 36.974,239.558 36.591,239.095 36.344 C 236.419 34.912,233.546 34.528,221.699 34.024 C 212.174 33.619,211.589 33.517,212.573 32.429 C 213.893 30.971,192.644 30.098,184.864 31.291 M76.254 81.433 C 75.623 81.987,75.243 82.567,75.409 82.721 C 75.574 82.874,75.790 82.775,75.888 82.500 C 75.986 82.225,76.412 82.000,76.833 82.000 C 77.333 82.000,77.600 81.722,77.600 81.200 C 77.600 80.216,77.647 80.208,76.254 81.433 M325.152 86.887 C 325.337 87.998,325.393 88.055,325.519 87.254 C 325.601 86.733,325.503 86.143,325.301 85.941 C 325.079 85.719,325.021 86.093,325.152 86.887 M163.752 121.904 C 166.788 122.755,171.100 126.328,172.235 128.935 C 172.634 129.851,173.439 131.230,174.025 132.000 C 174.610 132.770,175.332 134.120,175.628 135.000 C 175.925 135.880,176.917 137.770,177.834 139.200 C 178.750 140.630,179.837 142.465,180.250 143.277 C 184.974 152.583,186.306 154.985,187.629 156.586 C 190.231 159.735,190.224 162.166,187.600 166.095 C 186.720 167.413,186.000 168.680,186.000 168.911 C 186.000 169.141,185.473 170.156,184.829 171.165 C 184.184 172.174,183.289 173.939,182.839 175.088 C 182.389 176.236,180.854 179.120,179.426 181.497 C 177.999 183.875,176.423 186.800,175.925 187.998 C 174.306 191.894,172.522 194.997,171.822 195.135 C 170.325 195.431,169.324 194.806,168.577 193.109 C 168.163 192.169,166.771 189.428,165.482 187.018 C 164.194 184.608,162.709 181.575,162.181 180.277 C 161.654 178.980,160.090 176.182,158.706 174.059 C 157.322 171.937,155.944 169.480,155.644 168.600 C 155.344 167.720,154.496 166.010,153.761 164.800 C 153.025 163.590,152.145 161.802,151.804 160.827 C 149.990 155.639,148.882 155.135,139.381 155.182 C 131.208 155.223,130.249 155.394,129.764 156.900 C 129.604 157.395,129.526 186.960,129.591 222.600 C 129.656 258.240,129.709 287.910,129.710 288.533 C 129.713 291.339,129.890 291.311,111.937 291.358 C 96.281 291.399,95.785 291.376,94.869 290.589 L 93.925 289.777 93.980 213.304 C 94.028 146.989,94.115 136.524,94.631 134.516 C 95.933 129.458,102.488 122.307,106.293 121.794 C 107.342 121.653,108.380 121.469,108.600 121.387 C 109.619 121.004,162.303 121.498,163.752 121.904 M288.200 121.659 C 294.122 122.645,300.678 129.750,301.567 136.145 C 302.160 140.405,302.172 286.764,301.580 288.895 C 300.905 291.326,300.998 291.313,284.026 291.258 C 269.672 291.211,268.531 291.156,267.600 290.465 C 265.504 288.910,265.602 292.388,265.700 222.507 L 265.793 157.215 264.886 156.307 C 264.027 155.448,263.583 155.388,256.490 155.167 C 246.874 154.869,246.213 155.184,243.750 161.245 C 243.180 162.650,242.356 164.300,241.920 164.912 C 240.987 166.223,239.371 169.215,235.178 177.400 C 231.656 184.274,228.627 189.844,228.003 190.596 C 227.768 190.880,227.136 192.233,226.598 193.604 C 226.061 194.974,225.197 196.659,224.677 197.348 C 224.158 198.037,223.517 199.229,223.253 199.998 C 222.989 200.767,221.744 203.162,220.487 205.321 C 216.726 211.774,216.753 211.715,216.990 213.000 C 217.111 213.660,217.586 214.711,218.044 215.337 C 218.823 216.398,220.765 219.959,223.083 224.576 C 223.629 225.663,224.495 227.103,225.009 227.776 C 225.522 228.449,226.242 229.884,226.609 230.965 C 226.975 232.045,227.875 233.800,228.607 234.864 C 229.339 235.928,230.154 237.474,230.419 238.300 C 230.684 239.125,231.130 240.070,231.410 240.400 C 231.690 240.730,232.625 242.350,233.487 244.000 C 234.349 245.650,235.354 247.540,235.720 248.200 C 236.087 248.860,237.084 250.847,237.937 252.615 C 238.790 254.384,240.193 256.994,241.055 258.415 C 241.917 259.837,243.045 261.990,243.562 263.200 C 244.079 264.410,244.993 266.120,245.594 267.000 C 247.484 269.771,249.857 274.123,250.609 276.200 C 251.007 277.300,251.641 278.560,252.017 279.000 C 252.393 279.440,252.925 280.250,253.200 280.800 C 253.475 281.350,254.429 282.757,255.319 283.927 C 258.648 288.298,257.671 292.413,253.450 291.804 C 252.323 291.641,244.596 291.453,236.280 291.386 C 219.398 291.250,220.452 291.445,219.018 288.202 C 218.524 287.085,217.038 284.378,215.716 282.186 C 214.394 279.994,213.170 277.750,212.997 277.200 C 212.825 276.650,212.271 275.547,211.768 274.749 C 211.264 273.952,210.331 272.242,209.694 270.949 C 206.317 264.103,205.050 261.724,204.391 261.000 C 203.991 260.560,202.914 258.310,201.998 256.000 C 198.830 248.010,197.639 248.198,193.122 257.400 C 189.769 264.233,185.710 271.898,184.650 273.399 C 184.185 274.059,182.092 278.019,180.000 282.199 C 175.059 292.071,177.624 291.059,156.859 291.335 L 140.318 291.555 139.359 290.595 C 137.868 289.104,138.249 286.861,140.379 284.600 C 141.001 283.940,142.151 282.196,142.936 280.724 C 144.869 277.100,145.002 276.834,145.786 275.014 C 146.162 274.142,146.961 272.792,147.562 272.014 C 148.163 271.236,149.039 269.700,149.508 268.600 C 149.977 267.500,151.253 264.980,152.343 263.000 C 153.434 261.020,155.609 256.880,157.175 253.800 C 158.742 250.720,160.365 247.660,160.782 247.000 C 161.199 246.340,161.761 245.170,162.032 244.400 C 162.302 243.630,162.932 242.350,163.432 241.554 C 164.421 239.983,167.628 233.748,169.583 229.600 C 170.256 228.170,171.180 226.460,171.635 225.800 C 173.249 223.457,175.140 219.992,175.615 218.507 C 175.879 217.678,176.697 216.215,177.432 215.255 C 178.167 214.295,179.079 212.675,179.458 211.655 C 179.837 210.635,180.630 209.080,181.221 208.200 C 182.161 206.798,184.204 203.119,185.400 200.673 C 186.113 199.215,191.456 188.653,192.418 186.800 C 192.932 185.810,193.773 184.437,194.287 183.748 C 194.801 183.059,195.651 181.401,196.175 180.063 C 196.700 178.725,197.661 176.858,198.312 175.915 C 200.341 172.975,201.957 170.089,202.969 167.600 C 203.504 166.283,204.294 164.709,204.725 164.103 C 205.156 163.496,205.771 162.370,206.093 161.600 C 206.414 160.830,207.721 158.310,208.996 156.000 C 210.272 153.690,212.658 149.192,214.299 146.004 C 215.939 142.816,217.605 139.754,218.000 139.200 C 218.395 138.645,219.455 136.663,220.355 134.796 C 224.304 126.605,227.668 123.072,232.747 121.782 C 235.124 121.179,284.657 121.068,288.200 121.659 M39.200 141.800 C 39.200 142.130,39.380 142.400,39.600 142.400 C 39.820 142.400,40.000 142.130,40.000 141.800 C 40.000 141.470,39.820 141.200,39.600 141.200 C 39.380 141.200,39.200 141.470,39.200 141.800 M358.500 148.998 C 357.843 149.744,357.869 150.000,358.600 150.000 C 358.933 150.000,359.200 149.644,359.200 149.200 C 359.200 148.262,359.159 148.250,358.500 148.998 M40.814 272.100 L 40.828 273.400 41.400 272.400 C 42.136 271.112,42.136 270.800,41.400 270.800 C 40.987 270.800,40.804 271.205,40.814 272.100 M253.084 372.000 C 252.969 372.440,252.908 372.800,252.949 372.800 C 252.989 372.800,253.330 372.440,253.707 372.000 C 254.232 371.387,254.263 371.200,253.843 371.200 C 253.541 371.200,253.199 371.560,253.084 372.000 M145.600 373.467 C 145.600 373.760,145.840 374.000,146.133 374.000 C 146.427 374.000,146.667 373.760,146.667 373.467 C 146.667 373.173,146.427 372.933,146.133 372.933 C 145.840 372.933,145.600 373.173,145.600 373.467 " stroke="none" fill="#0b8d81" fill-rule="evenodd"></path><path id="path2" d="M177.600 29.376 C 177.600 30.299,176.848 30.528,174.108 30.439 C 171.837 30.365,171.512 30.449,171.328 31.154 C 171.088 32.071,167.653 32.710,165.707 32.200 C 163.744 31.685,161.229 31.849,160.463 32.543 C 160.011 32.952,159.042 33.200,157.895 33.200 C 156.405 33.200,156.005 33.353,155.800 34.000 C 155.578 34.699,155.195 34.800,152.773 34.800 C 150.575 34.800,150.000 34.924,150.000 35.400 C 150.000 35.860,149.465 36.007,147.700 36.030 C 144.608 36.070,143.483 36.309,143.090 37.011 C 142.909 37.335,142.364 37.603,141.880 37.606 C 140.797 37.614,139.431 38.367,140.400 38.422 C 141.872 38.506,139.226 39.146,137.300 39.172 C 135.476 39.196,135.200 39.305,135.200 40.000 C 135.200 40.643,134.933 40.800,133.843 40.800 C 133.005 40.800,132.397 41.030,132.255 41.400 C 132.119 41.756,131.517 42.000,130.775 42.000 C 129.862 42.000,129.469 42.215,129.316 42.800 C 129.159 43.401,128.770 43.600,127.753 43.600 C 126.667 43.600,126.400 43.758,126.400 44.400 C 126.400 45.052,126.133 45.200,124.963 45.200 C 123.879 45.200,123.475 45.390,123.323 45.972 C 123.203 46.432,122.894 46.657,122.561 46.530 C 122.189 46.387,122.000 46.599,122.000 47.157 C 122.000 47.874,121.760 48.000,120.400 48.000 C 119.067 48.000,118.800 48.133,118.800 48.800 C 118.800 49.448,118.533 49.600,117.400 49.600 C 116.480 49.600,116.000 49.788,116.000 50.149 C 116.000 50.480,115.365 50.799,114.400 50.954 C 113.365 51.119,112.800 51.420,112.800 51.805 C 112.800 52.132,112.554 52.400,112.254 52.400 C 111.954 52.400,111.250 52.760,110.691 53.200 C 110.131 53.640,109.299 54.000,108.840 54.000 C 108.382 54.000,107.782 54.360,107.507 54.800 C 107.232 55.240,106.775 55.600,106.491 55.600 C 106.207 55.600,105.871 55.870,105.745 56.200 C 105.611 56.548,105.013 56.800,104.320 56.800 C 103.462 56.800,103.066 57.025,102.916 57.600 C 102.801 58.040,102.441 58.400,102.116 58.400 C 101.791 58.400,101.431 58.760,101.316 59.200 C 101.201 59.640,100.841 60.000,100.516 60.000 C 100.191 60.000,99.831 60.360,99.716 60.800 C 99.601 61.240,99.258 61.600,98.953 61.600 C 98.649 61.600,98.400 61.870,98.400 62.200 C 98.400 62.633,97.956 62.800,96.800 62.800 C 95.467 62.800,95.200 62.933,95.200 63.600 C 95.200 64.040,94.975 64.403,94.700 64.407 C 94.090 64.415,92.400 66.142,92.400 66.756 C 92.400 67.000,92.113 67.200,91.763 67.200 C 91.412 67.200,91.031 67.560,90.916 68.000 C 90.801 68.440,90.452 68.800,90.141 68.800 C 89.830 68.800,89.471 69.070,89.345 69.400 C 89.211 69.748,88.613 70.000,87.920 70.000 C 87.062 70.000,86.666 70.225,86.516 70.800 C 86.401 71.240,86.041 71.600,85.716 71.600 C 85.391 71.600,85.031 71.960,84.916 72.400 C 84.801 72.840,84.458 73.200,84.153 73.200 C 83.849 73.200,83.600 73.458,83.600 73.773 C 83.600 74.088,83.240 74.460,82.800 74.600 C 82.360 74.740,82.000 75.112,82.000 75.427 C 82.000 75.742,81.713 76.000,81.363 76.000 C 81.012 76.000,80.631 76.360,80.516 76.800 C 80.401 77.240,80.058 77.600,79.753 77.600 C 79.214 77.600,79.013 78.280,79.132 79.700 C 79.170 80.152,78.908 80.400,78.395 80.400 C 77.867 80.400,77.600 80.668,77.600 81.200 C 77.600 81.733,77.333 82.000,76.800 82.000 C 76.360 82.000,76.000 82.180,76.000 82.400 C 76.000 82.620,75.719 82.800,75.376 82.800 C 75.033 82.800,74.864 82.980,75.000 83.200 C 75.136 83.420,75.057 83.622,74.824 83.650 C 74.591 83.678,74.253 83.723,74.074 83.750 C 73.601 83.822,71.600 86.048,71.600 86.501 C 71.600 86.713,71.330 86.782,71.000 86.655 C 70.624 86.511,70.400 86.659,70.400 87.050 C 70.400 87.394,70.040 87.769,69.600 87.884 C 69.006 88.039,68.800 88.430,68.800 89.400 C 68.800 90.370,68.594 90.761,68.000 90.916 C 67.560 91.031,67.200 91.412,67.200 91.763 C 67.200 92.113,66.949 92.400,66.643 92.400 C 66.039 92.400,65.600 93.238,65.600 94.390 C 65.600 94.788,65.330 95.218,65.000 95.345 C 64.670 95.471,64.400 95.830,64.400 96.141 C 64.400 96.452,64.040 96.801,63.600 96.916 C 63.047 97.061,62.800 97.462,62.800 98.215 C 62.800 100.251,67.498 98.332,67.586 96.260 C 67.594 96.074,68.095 95.434,68.700 94.839 C 70.321 93.245,74.023 88.900,75.400 86.975 C 78.333 82.876,81.230 79.820,85.200 76.641 C 85.970 76.025,88.059 74.098,89.843 72.360 C 91.627 70.622,93.196 69.200,93.331 69.200 C 93.466 69.200,94.437 68.382,95.488 67.383 C 96.540 66.384,97.873 65.311,98.452 64.998 C 99.030 64.685,99.609 64.153,99.739 63.815 C 99.869 63.477,100.251 63.200,100.587 63.200 C 100.924 63.200,101.200 63.016,101.200 62.790 C 101.200 62.565,101.605 62.205,102.100 61.991 C 103.287 61.478,104.282 60.806,105.555 59.658 C 106.130 59.140,107.410 58.304,108.400 57.800 C 109.390 57.296,110.660 56.460,111.221 55.942 C 111.783 55.424,113.084 54.584,114.112 54.076 C 115.141 53.569,116.097 52.967,116.238 52.739 C 116.379 52.511,117.673 51.796,119.113 51.149 C 120.554 50.503,122.137 49.537,122.632 49.003 C 123.127 48.469,124.042 47.929,124.666 47.803 C 125.290 47.678,127.060 46.957,128.600 46.202 C 130.140 45.448,132.131 44.573,133.024 44.260 C 133.917 43.946,135.665 43.147,136.907 42.483 C 138.167 41.811,140.413 41.068,141.985 40.803 C 145.107 40.276,149.596 37.942,149.606 36.840 C 149.611 36.314,149.675 36.299,149.966 36.759 C 150.502 37.605,154.331 37.115,158.676 35.644 C 162.090 34.489,162.748 34.400,167.887 34.400 C 172.779 34.400,177.536 34.046,181.460 33.390 C 182.440 33.226,182.677 33.016,182.527 32.443 C 182.229 31.302,186.862 30.800,197.716 30.797 C 208.624 30.794,213.562 31.337,212.573 32.429 C 211.589 33.517,212.174 33.619,221.699 34.024 C 233.546 34.528,236.419 34.912,239.095 36.344 C 239.558 36.591,241.255 36.974,242.868 37.195 C 244.755 37.453,246.798 38.086,248.600 38.969 C 250.140 39.724,252.750 40.648,254.400 41.022 C 256.050 41.397,257.799 41.950,258.286 42.251 C 258.773 42.553,259.473 42.800,259.842 42.800 C 260.210 42.800,260.712 43.074,260.957 43.409 C 261.202 43.744,262.120 44.135,262.997 44.277 C 263.874 44.419,265.403 45.043,266.396 45.662 C 267.388 46.282,268.650 46.989,269.200 47.233 C 272.195 48.564,273.074 49.019,273.800 49.617 C 274.240 49.979,276.007 51.022,277.726 51.935 C 279.446 52.848,282.132 54.451,283.696 55.498 C 285.260 56.544,286.810 57.580,287.141 57.800 C 291.593 60.760,294.554 62.910,295.876 64.142 C 296.578 64.796,297.859 65.796,298.723 66.365 C 301.234 68.019,306.204 72.266,310.935 76.800 C 319.402 84.915,322.250 88.030,325.600 92.838 C 327.030 94.890,328.740 97.144,329.400 97.845 C 330.709 99.237,331.366 100.134,332.052 101.466 C 332.297 101.942,332.836 102.421,333.249 102.529 C 333.677 102.641,334.000 103.079,334.000 103.548 C 334.000 104.311,335.413 105.480,336.100 105.285 C 336.618 105.138,336.426 105.925,335.901 106.100 C 335.264 106.312,336.673 109.091,337.700 109.648 C 338.085 109.857,338.400 110.280,338.400 110.588 C 338.400 111.362,341.476 114.674,342.425 114.922 C 343.096 115.098,343.200 114.911,343.200 113.525 C 343.200 112.262,343.032 111.881,342.400 111.716 C 341.957 111.600,341.600 111.170,341.600 110.753 C 341.600 110.268,341.317 110.000,340.805 110.000 C 340.292 110.000,340.030 109.752,340.068 109.300 C 340.187 107.880,339.986 107.200,339.447 107.200 C 339.142 107.200,338.799 106.840,338.684 106.400 C 338.569 105.960,338.188 105.600,337.837 105.600 C 337.376 105.600,337.200 105.214,337.200 104.200 C 337.200 103.067,337.048 102.800,336.400 102.800 C 335.766 102.800,335.599 102.531,335.593 101.500 C 335.586 100.212,334.213 98.400,333.244 98.400 C 333.000 98.400,332.800 97.965,332.800 97.433 C 332.800 96.052,332.402 95.200,331.757 95.200 C 331.451 95.200,331.200 94.930,331.200 94.600 C 331.200 94.270,330.930 94.000,330.600 94.000 C 330.237 94.000,330.000 93.629,330.000 93.059 C 330.000 92.274,328.001 89.600,327.415 89.600 C 326.900 89.600,325.200 87.459,325.200 86.810 C 325.200 85.599,324.076 84.800,322.371 84.800 C 321.241 84.800,320.800 84.632,320.800 84.200 C 320.800 83.870,320.542 83.600,320.227 83.600 C 319.912 83.600,319.540 83.240,319.400 82.800 C 319.260 82.360,318.888 82.000,318.573 82.000 C 318.258 82.000,318.000 81.724,318.000 81.387 C 318.000 81.051,317.730 80.671,317.400 80.545 C 317.052 80.411,316.800 79.813,316.800 79.120 C 316.800 78.262,316.575 77.866,316.000 77.716 C 315.557 77.600,315.200 77.170,315.200 76.753 C 315.200 76.267,314.917 76.000,314.400 76.000 C 313.960 76.000,313.600 75.742,313.600 75.427 C 313.600 75.112,313.240 74.740,312.800 74.600 C 312.360 74.460,312.000 74.088,312.000 73.773 C 312.000 73.458,311.730 73.200,311.400 73.200 C 311.070 73.200,310.800 72.913,310.800 72.563 C 310.800 72.212,310.440 71.831,310.000 71.716 C 309.560 71.601,309.200 71.241,309.200 70.916 C 309.200 70.591,308.840 70.231,308.400 70.116 C 307.960 70.001,307.600 69.658,307.600 69.353 C 307.600 69.049,307.342 68.800,307.027 68.800 C 306.712 68.800,306.340 68.440,306.200 68.000 C 306.060 67.560,305.786 67.200,305.591 67.200 C 305.115 67.200,303.200 65.263,303.200 64.782 C 303.200 64.572,302.570 64.400,301.800 64.400 C 300.786 64.400,300.400 64.224,300.400 63.763 C 300.400 63.412,300.040 63.031,299.600 62.916 C 299.160 62.801,298.800 62.441,298.800 62.116 C 298.800 61.791,298.440 61.431,298.000 61.316 C 297.560 61.201,297.200 60.858,297.200 60.553 C 297.200 60.207,296.757 60.000,296.014 60.000 C 295.238 60.000,294.680 59.724,294.400 59.200 C 294.165 58.760,293.773 58.400,293.530 58.400 C 293.287 58.400,292.883 58.120,292.633 57.777 C 292.383 57.435,291.397 56.979,290.442 56.765 C 289.345 56.519,288.322 55.937,287.664 55.187 C 287.091 54.534,286.392 54.000,286.111 54.000 C 285.830 54.000,285.600 53.640,285.600 53.200 C 285.600 52.581,285.333 52.400,284.418 52.400 C 283.276 52.400,281.200 50.840,281.200 49.982 C 281.200 49.772,280.469 49.600,279.576 49.600 C 278.487 49.600,278.043 49.454,278.228 49.155 C 278.587 48.573,277.671 48.014,276.347 48.006 C 275.633 48.002,275.226 47.742,275.084 47.200 C 274.934 46.625,274.538 46.400,273.680 46.400 C 272.987 46.400,272.389 46.148,272.255 45.800 C 272.111 45.423,271.499 45.200,270.613 45.200 C 269.467 45.200,269.200 45.049,269.200 44.400 C 269.200 43.752,268.933 43.600,267.800 43.600 C 266.870 43.600,266.400 43.413,266.400 43.043 C 266.400 42.328,265.523 42.000,263.610 42.000 C 262.624 42.000,262.004 41.788,261.855 41.400 C 261.729 41.070,261.370 40.800,261.059 40.800 C 260.748 40.800,260.399 40.440,260.284 40.000 C 260.104 39.311,259.738 39.200,257.650 39.200 C 255.762 39.200,255.272 39.079,255.435 38.653 C 255.663 38.060,254.519 37.615,252.747 37.605 C 252.022 37.602,251.626 37.343,251.478 36.775 C 251.359 36.322,251.023 35.983,250.731 36.023 C 248.959 36.263,247.200 35.953,247.200 35.400 C 247.200 34.912,246.539 34.800,243.647 34.800 C 240.430 34.800,240.073 34.724,239.884 34.000 C 239.695 33.275,239.338 33.200,236.086 33.200 C 232.631 33.200,230.519 32.498,232.083 31.870 C 232.421 31.735,232.366 31.652,231.924 31.632 C 231.552 31.614,231.136 31.780,231.000 32.000 C 230.384 32.996,226.400 32.263,226.400 31.153 C 226.400 30.510,226.089 30.400,224.262 30.400 C 222.632 30.400,221.952 30.210,221.400 29.600 C 220.437 28.536,177.600 28.317,177.600 29.376 M61.700 99.869 C 61.425 99.978,61.200 100.322,61.200 100.633 C 61.200 100.945,60.951 101.200,60.647 101.200 C 60.342 101.200,59.999 101.560,59.884 102.000 C 59.769 102.440,59.388 102.800,59.037 102.800 C 58.576 102.800,58.400 103.186,58.400 104.200 C 58.400 105.214,58.224 105.600,57.763 105.600 C 57.412 105.600,57.031 105.960,56.916 106.400 C 56.801 106.840,56.458 107.200,56.153 107.200 C 55.614 107.200,55.413 107.880,55.532 109.300 C 55.570 109.752,55.308 110.000,54.795 110.000 C 54.158 110.000,54.000 110.269,54.000 111.353 C 54.000 112.370,53.801 112.759,53.200 112.916 C 52.594 113.075,52.400 113.462,52.400 114.516 C 52.400 115.570,52.206 115.957,51.600 116.116 C 51.025 116.266,50.800 116.662,50.800 117.520 C 50.800 118.248,50.549 118.811,50.157 118.961 C 49.690 119.140,49.557 119.585,49.673 120.576 C 49.761 121.329,49.735 121.936,49.616 121.925 C 48.302 121.806,48.000 122.082,48.000 123.400 C 48.000 124.349,47.815 124.800,47.427 124.800 C 46.673 124.800,46.195 126.355,46.771 126.931 C 47.356 127.516,48.541 126.814,48.748 125.761 C 48.829 125.347,49.234 124.771,49.648 124.482 C 50.062 124.192,50.400 123.588,50.400 123.140 C 50.400 122.693,50.760 121.869,51.200 121.309 C 51.640 120.750,52.000 120.074,52.000 119.808 C 52.000 119.542,52.360 118.998,52.800 118.600 C 53.240 118.202,53.600 117.697,53.600 117.478 C 53.600 116.652,55.829 112.708,56.500 112.348 C 56.885 112.141,57.200 111.709,57.200 111.387 C 57.200 111.065,57.830 109.925,58.600 108.853 C 59.370 107.781,60.003 106.746,60.007 106.552 C 60.010 106.359,60.730 105.493,61.607 104.630 C 62.483 103.766,63.200 102.880,63.200 102.661 C 63.200 102.442,63.461 101.975,63.780 101.622 C 64.693 100.614,63.136 99.301,61.700 99.869 M342.643 116.632 C 342.274 117.595,342.802 119.173,343.646 119.625 C 344.061 119.847,344.400 120.376,344.400 120.801 C 344.400 121.578,345.223 123.749,346.220 125.600 C 348.805 130.399,350.591 134.463,351.219 136.975 C 351.630 138.620,352.416 140.649,352.966 141.483 C 353.894 142.892,355.200 146.939,355.200 148.406 C 355.200 148.757,355.641 149.642,356.179 150.372 C 356.718 151.101,357.274 152.229,357.417 152.876 C 357.659 153.979,358.993 154.946,359.700 154.529 C 359.865 154.432,360.021 154.768,360.047 155.276 C 360.072 155.784,360.259 155.210,360.461 154.000 C 360.916 151.281,360.451 150.000,359.009 150.000 C 358.454 150.000,358.000 149.820,358.000 149.600 C 358.000 149.380,358.180 149.200,358.400 149.200 C 359.052 149.200,358.856 148.175,358.069 147.462 C 357.666 147.098,357.081 146.800,356.769 146.800 C 356.314 146.801,356.215 146.081,356.276 143.200 C 356.346 139.878,356.291 139.600,355.576 139.600 C 355.149 139.600,354.800 139.330,354.800 139.000 C 354.800 138.670,354.530 138.400,354.200 138.400 C 353.857 138.400,353.600 138.040,353.600 137.557 C 353.600 136.972,353.784 136.785,354.200 136.945 C 354.530 137.071,354.800 137.001,354.800 136.787 C 354.800 136.574,354.530 136.400,354.200 136.400 C 353.781 136.400,353.600 135.978,353.600 135.000 C 353.600 133.867,353.448 133.600,352.800 133.600 C 352.152 133.600,352.000 133.333,352.000 132.200 C 352.000 131.067,351.848 130.800,351.200 130.800 C 350.497 130.800,350.400 130.533,350.400 128.600 C 350.400 126.911,350.261 126.400,349.800 126.400 C 349.378 126.400,349.200 125.974,349.200 124.963 C 349.200 123.862,349.013 123.476,348.400 123.316 C 347.799 123.159,347.600 122.770,347.600 121.753 C 347.600 120.667,347.442 120.400,346.800 120.400 C 346.175 120.400,346.000 120.133,346.000 119.181 C 346.000 117.233,343.222 115.124,342.643 116.632 M108.600 121.387 C 108.380 121.469,107.342 121.653,106.293 121.794 C 102.488 122.307,95.933 129.458,94.631 134.516 C 94.115 136.524,94.028 146.989,93.980 213.304 L 93.925 289.777 94.869 290.589 C 95.785 291.376,96.281 291.399,111.937 291.358 C 129.890 291.311,129.713 291.339,129.710 288.533 C 129.709 287.910,129.656 258.240,129.591 222.600 C 129.526 186.960,129.604 157.395,129.764 156.900 C 130.249 155.394,131.208 155.223,139.381 155.182 C 148.882 155.135,149.990 155.639,151.804 160.827 C 152.145 161.802,153.025 163.590,153.761 164.800 C 154.496 166.010,155.344 167.720,155.644 168.600 C 155.944 169.480,157.322 171.937,158.706 174.059 C 160.090 176.182,161.654 178.980,162.181 180.277 C 162.709 181.575,164.194 184.608,165.482 187.018 C 166.771 189.428,168.163 192.169,168.577 193.109 C 169.324 194.806,170.325 195.431,171.822 195.135 C 172.522 194.997,174.306 191.894,175.925 187.998 C 176.423 186.800,177.999 183.875,179.426 181.497 C 180.854 179.120,182.389 176.236,182.839 175.088 C 183.289 173.939,184.184 172.174,184.829 171.165 C 185.473 170.156,186.000 169.141,186.000 168.911 C 186.000 168.680,186.720 167.413,187.600 166.095 C 190.224 162.166,190.231 159.735,187.629 156.586 C 186.306 154.985,184.974 152.583,180.250 143.277 C 179.837 142.465,178.750 140.630,177.834 139.200 C 176.917 137.770,175.925 135.880,175.628 135.000 C 175.332 134.120,174.610 132.770,174.025 132.000 C 173.439 131.230,172.634 129.851,172.235 128.935 C 171.100 126.328,166.788 122.755,163.752 121.904 C 162.303 121.498,109.619 121.004,108.600 121.387 M232.747 121.782 C 227.668 123.072,224.304 126.605,220.355 134.796 C 219.455 136.663,218.395 138.645,218.000 139.200 C 217.605 139.754,215.939 142.816,214.299 146.004 C 212.658 149.192,210.272 153.690,208.996 156.000 C 207.721 158.310,206.414 160.830,206.093 161.600 C 205.771 162.370,205.156 163.496,204.725 164.103 C 204.294 164.709,203.504 166.283,202.969 167.600 C 201.957 170.089,200.341 172.975,198.312 175.915 C 197.661 176.858,196.700 178.725,196.175 180.063 C 195.651 181.401,194.801 183.059,194.287 183.748 C 193.773 184.437,192.932 185.810,192.418 186.800 C 191.456 188.653,186.113 199.215,185.400 200.673 C 184.204 203.119,182.161 206.798,181.221 208.200 C 180.630 209.080,179.837 210.635,179.458 211.655 C 179.079 212.675,178.167 214.295,177.432 215.255 C 176.697 216.215,175.879 217.678,175.615 218.507 C 175.140 219.992,173.249 223.457,171.635 225.800 C 171.180 226.460,170.256 228.170,169.583 229.600 C 167.628 233.748,164.421 239.983,163.432 241.554 C 162.932 242.350,162.302 243.630,162.032 244.400 C 161.761 245.170,161.199 246.340,160.782 247.000 C 160.365 247.660,158.742 250.720,157.175 253.800 C 155.609 256.880,153.434 261.020,152.343 263.000 C 151.253 264.980,149.977 267.500,149.508 268.600 C 149.039 269.700,148.163 271.236,147.562 272.014 C 146.961 272.792,146.162 274.142,145.786 275.014 C 145.002 276.834,144.869 277.100,142.936 280.724 C 142.151 282.196,141.001 283.940,140.379 284.600 C 138.249 286.861,137.868 289.104,139.359 290.595 L 140.318 291.555 156.859 291.335 C 177.624 291.059,175.059 292.071,180.000 282.199 C 182.092 278.019,184.185 274.059,184.650 273.399 C 185.710 271.898,189.769 264.233,193.122 257.400 C 197.639 248.198,198.830 248.010,201.998 256.000 C 202.914 258.310,203.991 260.560,204.391 261.000 C 205.050 261.724,206.317 264.103,209.694 270.949 C 210.331 272.242,211.264 273.952,211.768 274.749 C 212.271 275.547,212.825 276.650,212.997 277.200 C 213.170 277.750,214.394 279.994,215.716 282.186 C 217.038 284.378,218.524 287.085,219.018 288.202 C 220.452 291.445,219.398 291.250,236.280 291.386 C 244.596 291.453,252.323 291.641,253.450 291.804 C 257.671 292.413,258.648 288.298,255.319 283.927 C 254.429 282.757,253.475 281.350,253.200 280.800 C 252.925 280.250,252.393 279.440,252.017 279.000 C 251.641 278.560,251.007 277.300,250.609 276.200 C 249.857 274.123,247.484 269.771,245.594 267.000 C 244.993 266.120,244.079 264.410,243.562 263.200 C 243.045 261.990,241.917 259.837,241.055 258.415 C 240.193 256.994,238.790 254.384,237.937 252.615 C 237.084 250.847,236.087 248.860,235.720 248.200 C 235.354 247.540,234.349 245.650,233.487 244.000 C 232.625 242.350,231.690 240.730,231.410 240.400 C 231.130 240.070,230.684 239.125,230.419 238.300 C 230.154 237.474,229.339 235.928,228.607 234.864 C 227.875 233.800,226.975 232.045,226.609 230.965 C 226.242 229.884,225.522 228.449,225.009 227.776 C 224.495 227.103,223.629 225.663,223.083 224.576 C 220.765 219.959,218.823 216.398,218.044 215.337 C 217.586 214.711,217.111 213.660,216.990 213.000 C 216.753 211.715,216.726 211.774,220.487 205.321 C 221.744 203.162,222.989 200.767,223.253 199.998 C 223.517 199.229,224.158 198.037,224.677 197.348 C 225.197 196.659,226.061 194.974,226.598 193.604 C 227.136 192.233,227.768 190.880,228.003 190.596 C 228.627 189.844,231.656 184.274,235.178 177.400 C 239.371 169.215,240.987 166.223,241.920 164.912 C 242.356 164.300,243.180 162.650,243.750 161.245 C 246.213 155.184,246.874 154.869,256.490 155.167 C 263.583 155.388,264.027 155.448,264.886 156.307 L 265.793 157.215 265.700 222.507 C 265.602 292.388,265.504 288.910,267.600 290.465 C 268.531 291.156,269.672 291.211,284.026 291.258 C 300.998 291.313,300.905 291.326,301.580 288.895 C 302.172 286.764,302.160 140.405,301.567 136.145 C 300.678 129.750,294.122 122.645,288.200 121.659 C 284.657 121.068,235.124 121.179,232.747 121.782 M162.740 123.584 C 163.599 123.815,165.204 124.723,166.308 125.602 C 167.411 126.481,168.478 127.200,168.677 127.200 C 169.033 127.200,169.734 128.241,172.040 132.200 C 173.794 135.212,173.830 135.280,174.585 137.000 C 175.383 138.816,175.550 139.111,177.195 141.600 C 177.849 142.590,178.388 143.701,178.392 144.069 C 178.397 144.438,178.997 145.521,179.726 146.476 C 180.456 147.432,181.394 149.163,181.811 150.322 C 182.228 151.482,182.874 152.758,183.248 153.159 C 183.621 153.560,184.290 154.600,184.734 155.471 C 185.178 156.341,185.837 157.298,186.197 157.598 C 188.101 159.177,188.407 161.327,187.002 163.241 C 186.452 163.988,185.554 165.546,185.005 166.703 C 184.457 167.859,183.575 169.479,183.046 170.303 C 182.518 171.126,181.773 172.790,181.391 174.000 C 181.009 175.210,180.450 176.484,180.149 176.831 C 179.847 177.179,179.600 177.659,179.600 177.898 C 179.600 178.138,179.462 178.393,179.292 178.467 C 178.867 178.651,176.105 183.488,174.004 187.728 C 171.681 192.417,170.995 192.899,169.822 190.672 C 167.086 185.481,165.449 182.531,165.007 182.000 C 164.733 181.670,164.147 180.307,163.705 178.972 C 163.257 177.618,161.717 174.821,160.225 172.652 C 158.754 170.511,157.313 167.972,157.023 167.009 C 156.733 166.046,155.925 164.413,155.228 163.379 C 154.531 162.346,153.853 160.938,153.722 160.250 C 153.415 158.638,151.381 155.608,149.623 154.146 L 148.246 153.000 139.352 153.000 C 131.018 153.000,130.389 153.051,129.363 153.818 C 127.051 155.545,127.157 152.089,127.233 223.345 C 127.284 271.152,127.182 288.964,126.857 289.165 C 126.275 289.525,97.026 289.387,96.434 289.021 C 95.914 288.700,96.077 134.891,96.599 133.943 C 98.119 131.178,101.238 127.137,102.728 126.000 C 105.371 123.983,105.589 123.873,107.840 123.415 C 110.609 122.852,160.593 123.006,162.740 123.584 M289.807 124.045 C 292.615 125.365,298.089 131.079,299.077 133.723 C 299.742 135.501,299.818 288.618,299.154 289.028 C 298.814 289.239,273.457 289.419,269.910 289.236 C 267.914 289.133,267.985 291.756,268.064 221.399 C 268.138 156.368,268.133 155.969,267.332 154.888 C 266.128 153.264,263.913 152.868,255.826 152.832 C 246.041 152.788,244.489 153.631,241.977 160.358 C 241.516 161.591,240.696 163.182,240.154 163.894 C 239.612 164.605,238.913 165.912,238.601 166.798 C 238.288 167.684,237.521 169.172,236.897 170.104 C 236.272 171.037,235.421 172.610,235.006 173.600 C 234.590 174.590,234.042 175.670,233.787 176.000 C 233.532 176.330,232.764 177.770,232.078 179.200 C 231.393 180.630,230.400 182.526,229.871 183.414 C 229.341 184.302,228.774 185.452,228.610 185.969 C 228.446 186.486,227.717 187.688,226.991 188.639 C 226.265 189.591,225.543 190.961,225.387 191.685 C 225.060 193.202,224.137 195.120,223.359 195.898 C 223.063 196.194,221.770 198.633,220.485 201.318 C 219.200 204.003,217.486 207.069,216.675 208.131 C 214.534 210.934,214.773 215.528,217.152 217.314 C 217.842 217.832,219.200 220.493,219.200 221.327 C 219.200 221.602,219.841 222.811,220.624 224.013 C 221.407 225.216,222.302 226.740,222.613 227.400 C 222.924 228.060,223.555 229.064,224.016 229.632 C 224.477 230.199,225.024 231.419,225.232 232.342 C 225.439 233.265,226.206 234.871,226.936 235.910 C 227.667 236.950,228.398 238.333,228.561 238.985 C 228.724 239.636,229.381 240.946,230.021 241.894 C 230.661 242.842,231.650 244.600,232.218 245.801 C 232.786 247.002,233.404 248.079,233.591 248.194 C 234.052 248.479,235.453 251.529,235.780 252.961 C 235.926 253.600,236.609 254.941,237.297 255.941 C 238.757 258.062,240.023 260.324,241.897 264.156 C 242.638 265.672,243.656 267.472,244.157 268.156 C 244.659 268.840,245.395 270.120,245.792 271.000 C 246.190 271.880,247.030 273.257,247.659 274.060 C 248.289 274.863,248.919 276.123,249.059 276.860 C 249.385 278.571,250.164 280.116,251.302 281.309 C 251.796 281.827,252.515 282.779,252.900 283.425 C 253.286 284.071,254.051 285.212,254.600 285.959 C 256.607 288.688,255.200 290.373,251.520 289.647 C 250.266 289.400,243.774 289.246,235.630 289.271 L 221.860 289.314 221.130 288.413 C 220.728 287.917,220.400 287.031,220.400 286.445 C 220.400 285.805,219.892 284.823,219.129 283.989 C 217.982 282.735,216.661 280.366,211.437 270.200 C 210.533 268.440,209.502 266.550,209.145 266.000 C 208.788 265.450,208.169 264.100,207.768 263.000 C 207.368 261.900,206.543 260.370,205.936 259.600 C 205.329 258.830,204.553 257.390,204.213 256.400 C 203.581 254.561,203.509 254.388,202.001 251.102 C 199.427 245.492,196.579 246.381,192.907 253.942 C 191.876 256.064,190.521 258.567,189.894 259.505 C 189.268 260.442,188.567 261.748,188.338 262.406 C 188.109 263.064,187.129 264.992,186.161 266.691 C 185.192 268.390,184.400 269.982,184.400 270.228 C 184.400 270.474,183.949 271.199,183.397 271.838 C 182.846 272.477,182.094 273.810,181.726 274.800 C 181.358 275.790,180.759 277.050,180.394 277.600 C 180.030 278.150,179.310 279.500,178.793 280.600 C 178.277 281.700,177.257 283.391,176.527 284.358 C 175.797 285.324,175.194 286.314,175.187 286.558 C 175.111 289.067,173.748 289.278,156.841 289.400 C 139.034 289.529,138.762 289.461,142.019 285.726 C 142.630 285.026,143.262 284.036,143.423 283.526 C 143.585 283.017,144.306 281.828,145.026 280.885 C 145.746 279.942,146.452 278.474,146.596 277.624 C 146.748 276.725,147.425 275.414,148.213 274.493 C 148.958 273.622,149.916 272.028,150.341 270.951 C 150.765 269.873,151.762 267.883,152.556 266.529 C 153.350 265.174,154.000 263.893,154.000 263.682 C 154.000 263.471,154.278 263.067,154.617 262.786 C 155.141 262.351,157.200 258.364,157.200 257.785 C 157.200 257.679,157.728 256.864,158.373 255.973 C 159.019 255.083,159.671 253.779,159.823 253.077 C 159.976 252.375,160.705 250.885,161.444 249.767 C 162.183 248.649,163.182 246.759,163.663 245.567 C 164.144 244.375,164.760 243.130,165.031 242.800 C 165.871 241.777,170.400 232.808,170.400 232.167 C 170.400 231.327,171.514 229.200,172.581 228.000 C 173.709 226.732,175.780 222.987,176.839 220.301 C 177.288 219.163,178.187 217.508,178.837 216.624 C 179.487 215.741,180.212 214.296,180.450 213.415 C 180.687 212.534,181.377 211.180,181.982 210.406 C 183.229 208.814,184.466 206.673,187.304 201.200 C 188.388 199.110,189.510 196.950,189.798 196.400 C 190.086 195.850,191.186 193.600,192.243 191.400 C 193.300 189.200,194.668 186.745,195.282 185.943 C 195.896 185.142,196.926 183.191,197.570 181.607 C 198.215 180.023,199.018 178.422,199.354 178.051 C 200.050 177.282,202.307 173.355,202.659 172.300 C 202.788 171.915,203.038 171.600,203.215 171.600 C 203.391 171.600,203.826 170.726,204.181 169.658 C 204.536 168.590,205.319 166.925,205.923 165.958 C 206.526 164.991,207.364 163.390,207.785 162.400 C 208.206 161.410,208.774 160.330,209.047 159.999 C 209.321 159.669,210.080 158.205,210.734 156.746 C 211.389 155.287,212.124 153.971,212.368 153.820 C 213.000 153.429,214.400 150.574,214.400 149.676 C 214.400 149.260,214.905 148.218,215.522 147.360 C 216.139 146.502,217.233 144.630,217.952 143.200 C 225.095 129.007,226.178 127.506,231.200 124.829 L 234.200 123.230 261.104 123.215 C 287.672 123.200,288.031 123.211,289.807 124.045 M45.200 129.200 C 45.200 130.533,45.067 130.800,44.400 130.800 C 43.752 130.800,43.600 131.067,43.600 132.200 C 43.600 133.294,43.439 133.600,42.862 133.600 C 41.555 133.600,40.672 134.994,40.971 136.584 C 41.206 137.837,41.119 138.054,40.218 138.464 C 39.196 138.930,38.683 141.200,39.600 141.200 C 40.444 141.200,39.951 142.397,39.010 142.633 C 37.873 142.919,37.347 144.725,37.760 146.929 C 38.044 148.442,37.721 148.999,36.937 148.348 C 36.503 147.987,36.400 148.215,36.400 149.537 C 36.400 150.762,36.200 151.279,35.600 151.600 C 34.921 151.963,34.801 152.434,34.806 154.714 C 34.813 157.775,35.301 158.998,36.108 157.975 C 36.378 157.632,36.890 157.242,37.243 157.109 C 37.617 156.969,37.995 156.190,38.146 155.249 C 38.288 154.359,39.032 152.408,39.799 150.915 C 40.818 148.933,41.267 147.446,41.462 145.407 C 41.609 143.870,41.957 142.386,42.235 142.107 C 42.514 141.829,43.312 140.116,44.010 138.301 C 44.708 136.485,45.429 134.816,45.612 134.592 C 46.540 133.456,47.700 128.803,47.205 128.206 C 46.182 126.973,45.200 127.459,45.200 129.200 M358.900 157.653 C 357.662 158.908,360.244 167.600,361.855 167.600 C 362.375 167.600,362.820 167.825,362.844 168.100 C 362.869 168.375,363.127 167.620,363.419 166.422 C 364.028 163.918,363.800 162.097,362.854 161.915 C 362.362 161.820,362.197 161.326,362.189 159.917 C 362.183 158.887,362.080 157.946,361.960 157.826 C 361.431 157.297,359.367 157.181,358.900 157.653 M33.467 160.667 C 33.011 161.122,33.174 163.812,33.701 164.533 C 34.822 166.065,36.781 164.144,36.795 161.500 C 36.800 160.417,34.334 159.799,33.467 160.667 M32.566 166.306 C 31.828 166.806,31.835 171.451,32.574 171.735 C 32.918 171.867,33.182 172.386,33.160 172.887 C 33.122 173.771,33.111 173.768,32.831 172.800 C 32.581 171.935,32.502 172.057,32.247 173.700 C 31.916 175.823,30.970 176.303,30.671 174.500 C 30.571 173.895,30.506 174.884,30.526 176.698 C 30.550 178.784,30.386 180.174,30.082 180.478 C 29.706 180.854,29.599 180.788,29.594 180.180 C 29.589 179.529,29.523 179.499,29.197 180.000 C 28.317 181.350,28.721 230.800,29.612 230.800 C 30.326 230.800,30.402 231.090,30.425 233.900 C 30.446 236.377,30.531 236.799,30.849 236.001 L 31.247 235.002 31.996 235.995 C 32.408 236.540,32.606 237.080,32.436 237.194 C 32.266 237.307,32.086 238.615,32.036 240.100 L 31.945 242.800 33.292 242.800 C 35.856 242.800,35.979 242.103,34.994 233.200 C 34.238 226.367,33.862 223.721,32.834 218.000 C 32.380 215.470,32.006 212.830,32.004 212.133 C 32.002 211.437,31.782 210.794,31.516 210.705 C 30.813 210.471,30.798 199.138,31.500 198.902 C 31.776 198.809,32.004 198.076,32.010 197.267 C 32.015 196.460,32.205 194.996,32.431 194.014 C 32.657 193.032,33.007 190.062,33.207 187.414 C 33.408 184.766,33.861 181.795,34.215 180.811 C 35.067 178.438,35.801 167.325,35.157 166.548 C 34.668 165.958,33.272 165.828,32.566 166.306 M361.498 169.690 C 360.743 171.656,363.183 185.868,364.426 186.749 C 364.852 187.051,365.200 187.546,365.200 187.849 C 365.200 188.152,365.425 188.355,365.700 188.300 C 367.040 188.032,367.334 178.465,366.013 178.119 C 365.302 177.933,365.215 177.502,365.113 173.657 L 365.000 169.400 363.351 169.279 C 362.257 169.200,361.633 169.338,361.498 169.690 M364.959 191.666 C 364.636 192.190,364.736 205.768,365.070 206.639 C 365.374 207.430,367.848 207.372,368.157 206.567 C 368.636 205.320,368.427 192.187,367.920 191.680 C 367.306 191.066,365.336 191.057,364.959 191.666 M366.040 222.200 C 365.996 222.867,365.923 222.900,365.600 222.400 C 365.284 221.911,365.211 221.961,365.206 222.667 C 365.198 223.878,364.781 224.836,364.373 224.584 C 363.661 224.143,360.972 237.683,361.494 239.085 C 361.736 239.736,363.072 240.129,363.696 239.732 C 363.973 239.556,364.380 239.409,364.600 239.406 C 364.826 239.403,365.050 237.899,365.115 235.943 C 365.216 232.896,365.323 232.461,366.015 232.280 C 366.727 232.094,366.798 231.725,366.777 228.337 C 366.756 225.015,366.173 220.157,366.040 222.200 M361.772 241.073 C 361.119 241.202,360.789 241.843,360.203 244.118 C 359.796 245.703,359.241 247.540,358.970 248.200 C 358.699 248.860,358.358 250.480,358.212 251.800 C 358.066 253.120,357.747 255.160,357.502 256.333 C 357.019 258.652,357.352 259.279,358.907 258.979 C 360.301 258.711,360.892 257.919,360.678 256.604 C 360.385 254.799,360.788 253.110,361.451 253.364 C 361.951 253.556,362.207 251.971,362.107 249.300 C 362.097 249.025,362.260 248.800,362.468 248.800 C 362.677 248.800,362.737 248.622,362.603 248.405 C 362.463 248.178,362.623 248.111,362.979 248.247 C 363.501 248.448,363.600 248.072,363.600 245.893 C 363.600 243.098,363.253 240.767,362.850 240.854 C 362.713 240.884,362.228 240.983,361.772 241.073 M33.371 245.773 C 32.908 247.616,33.344 249.792,34.200 249.915 C 34.950 250.022,34.995 250.305,34.925 254.415 C 34.855 258.512,34.901 258.800,35.625 258.800 C 36.104 258.800,36.400 259.074,36.400 259.520 C 36.400 259.979,36.906 260.422,37.800 260.746 C 39.377 261.316,39.714 262.583,38.400 263.000 C 36.929 263.467,37.461 267.450,39.048 267.848 C 40.080 268.107,40.299 268.624,39.500 268.915 C 38.649 269.225,39.752 270.585,40.972 270.730 C 41.731 270.820,41.992 271.033,41.831 271.430 C 41.704 271.743,41.508 272.225,41.395 272.501 C 41.114 273.189,42.676 274.093,43.625 273.792 C 44.867 273.398,43.607 268.664,41.976 267.597 C 41.806 267.485,41.477 265.703,41.246 263.637 C 40.936 260.858,40.581 259.505,39.882 258.440 C 38.681 256.612,38.000 254.638,38.000 252.989 C 38.000 252.114,37.725 251.515,37.146 251.130 C 36.416 250.646,36.363 250.448,36.785 249.772 C 37.517 248.601,36.686 245.785,35.497 245.405 C 33.762 244.850,33.596 244.878,33.371 245.773 M356.014 260.374 C 354.877 262.498,355.964 264.183,357.827 263.186 C 358.774 262.679,359.201 261.200,358.400 261.200 C 358.180 261.200,358.000 260.840,358.000 260.400 C 358.000 259.348,356.573 259.329,356.014 260.374 M354.185 265.753 C 353.782 266.879,353.131 268.345,352.739 269.010 C 352.347 269.676,351.758 271.497,351.430 273.057 C 351.102 274.617,350.301 276.772,349.651 277.846 C 348.106 280.397,347.879 281.282,348.540 282.186 C 349.383 283.339,350.400 282.698,350.400 281.013 C 350.400 279.867,350.551 279.600,351.200 279.600 C 351.842 279.600,352.000 279.333,352.000 278.247 C 352.000 277.230,352.199 276.841,352.800 276.684 C 353.468 276.509,353.600 276.138,353.600 274.437 C 353.600 272.893,353.745 272.400,354.200 272.400 C 354.633 272.400,354.800 271.956,354.800 270.800 C 354.800 269.467,354.933 269.200,355.600 269.200 C 356.764 269.200,356.820 264.203,355.660 263.900 C 355.069 263.745,354.771 264.120,354.185 265.753 M43.600 276.237 C 43.600 277.738,43.746 278.113,44.400 278.284 C 45.001 278.441,45.200 278.830,45.200 279.847 C 45.200 281.219,45.612 281.477,46.967 280.957 C 47.873 280.610,47.763 279.917,46.336 276.992 C 44.738 273.713,43.600 273.400,43.600 276.237 M46.667 282.267 C 46.013 282.920,46.403 285.276,47.200 285.484 C 47.801 285.641,48.000 286.030,48.000 287.047 C 48.000 288.133,48.158 288.400,48.800 288.400 C 49.467 288.400,49.600 288.667,49.600 290.000 C 49.600 291.156,49.767 291.600,50.200 291.600 C 50.554 291.600,50.803 291.969,50.806 292.500 C 50.814 293.690,51.400 294.571,51.955 294.228 C 52.254 294.043,52.400 294.497,52.400 295.614 C 52.400 296.938,52.562 297.317,53.200 297.484 C 53.640 297.599,54.000 297.942,54.000 298.247 C 54.000 298.551,54.363 298.800,54.808 298.800 C 55.462 298.800,55.569 298.984,55.373 299.765 C 55.203 300.441,55.381 300.981,55.965 301.565 C 56.424 302.024,56.800 302.867,56.800 303.437 C 56.800 304.138,57.059 304.543,57.600 304.684 C 58.040 304.799,58.400 305.130,58.400 305.420 C 58.400 305.709,58.760 306.060,59.200 306.200 C 59.763 306.379,60.000 306.805,60.000 307.640 C 60.000 308.324,60.253 308.922,60.600 309.055 C 60.930 309.182,61.200 309.605,61.200 309.996 C 61.200 310.387,61.560 310.801,62.000 310.916 C 62.550 311.060,62.800 311.462,62.800 312.200 C 62.800 312.938,63.050 313.340,63.600 313.484 C 64.040 313.599,64.400 313.911,64.400 314.177 C 64.400 314.443,65.030 315.186,65.800 315.828 C 66.598 316.493,67.200 317.363,67.200 317.849 C 67.200 318.764,68.103 319.764,68.537 319.330 C 68.682 319.185,68.800 319.360,68.800 319.719 C 68.800 320.078,69.166 320.568,69.613 320.807 C 70.060 321.046,70.384 321.457,70.334 321.721 C 70.187 322.494,70.827 324.031,71.200 323.800 C 71.388 323.684,71.657 323.951,71.798 324.394 C 71.939 324.837,72.208 325.200,72.395 325.200 C 72.583 325.200,73.464 325.920,74.353 326.800 C 75.242 327.680,76.234 328.400,76.557 328.400 C 76.881 328.400,77.260 328.760,77.400 329.200 C 77.540 329.640,78.002 330.000,78.427 330.000 C 78.852 330.000,79.200 330.270,79.200 330.600 C 79.200 330.930,79.470 331.200,79.800 331.200 C 80.133 331.200,80.400 331.556,80.400 332.000 C 80.400 332.533,80.667 332.800,81.200 332.800 C 81.733 332.800,82.000 333.067,82.000 333.600 C 82.000 334.133,82.267 334.400,82.800 334.400 C 83.244 334.400,83.600 334.667,83.600 335.000 C 83.600 335.330,83.870 335.600,84.200 335.600 C 84.530 335.600,84.823 335.960,84.850 336.400 C 84.877 336.840,84.945 337.380,85.000 337.600 C 85.055 337.820,85.123 338.180,85.150 338.400 C 85.178 338.620,85.830 338.800,86.600 338.800 C 88.005 338.800,88.273 339.231,88.030 341.100 C 87.989 341.418,88.480 341.600,89.382 341.600 C 90.533 341.600,90.800 341.750,90.800 342.400 C 90.800 342.933,91.067 343.200,91.600 343.200 C 92.040 343.200,92.400 343.372,92.400 343.582 C 92.400 344.440,94.476 346.000,95.618 346.000 C 96.533 346.000,96.800 346.181,96.800 346.800 C 96.800 347.333,97.067 347.600,97.600 347.600 C 98.044 347.600,98.400 347.867,98.400 348.200 C 98.400 348.530,98.649 348.800,98.953 348.800 C 99.258 348.800,99.601 349.160,99.716 349.600 C 99.876 350.213,100.262 350.400,101.363 350.400 C 102.153 350.400,102.800 350.561,102.800 350.759 C 102.800 351.344,104.935 353.600,105.489 353.600 C 105.770 353.600,105.955 353.825,105.900 354.100 C 105.840 354.401,106.328 354.651,107.127 354.727 C 107.857 354.797,108.802 355.202,109.227 355.627 C 110.319 356.719,112.800 356.700,112.800 355.600 C 112.800 355.160,112.645 354.800,112.456 354.800 C 112.267 354.800,111.322 354.116,110.356 353.279 C 108.363 351.554,105.824 350.000,104.997 350.000 C 104.691 350.000,104.296 349.763,104.120 349.473 C 103.944 349.182,102.990 348.394,102.000 347.720 C 101.010 347.046,99.065 345.452,97.677 344.177 C 96.289 342.902,94.543 341.396,93.797 340.830 C 89.850 337.834,72.412 320.628,72.401 319.718 C 72.398 319.472,70.320 316.621,69.869 316.244 C 68.849 315.391,66.885 312.580,65.623 310.169 C 64.923 308.832,63.866 307.218,63.275 306.583 C 62.263 305.496,60.813 303.472,59.014 300.638 C 58.582 299.957,57.997 299.162,57.714 298.871 C 57.431 298.581,57.200 298.164,57.200 297.945 C 57.200 297.726,56.768 296.974,56.240 296.273 C 55.713 295.573,54.725 293.830,54.045 292.400 C 52.827 289.840,49.970 284.660,48.804 282.900 C 48.225 282.026,47.209 281.725,46.667 282.267 M346.870 284.128 C 345.877 285.188,345.093 287.145,345.371 287.869 C 345.644 288.581,347.600 288.562,347.600 287.847 C 347.600 287.542,347.960 287.199,348.400 287.084 C 349.046 286.915,349.200 286.538,349.200 285.123 C 349.200 283.067,348.246 282.659,346.870 284.128 M344.715 289.239 C 342.867 290.274,341.232 293.746,342.300 294.368 C 342.882 294.707,342.894 294.778,342.376 294.788 C 341.725 294.801,338.000 298.607,338.000 299.259 C 338.000 299.641,336.598 301.749,335.700 302.718 C 335.425 303.014,335.200 303.437,335.200 303.657 C 335.200 303.877,334.480 304.910,333.600 305.954 C 332.720 306.998,332.000 307.982,332.000 308.143 C 332.000 308.303,331.817 308.651,331.593 308.917 C 331.369 309.183,330.784 309.973,330.293 310.673 C 329.802 311.373,328.638 312.903,327.707 314.073 C 326.775 315.243,325.155 317.297,324.107 318.637 C 320.255 323.560,312.375 331.827,307.563 335.991 C 306.113 337.246,304.577 338.617,304.149 339.037 C 303.721 339.456,301.855 340.970,300.003 342.400 C 298.151 343.830,296.213 345.406,295.697 345.903 C 295.180 346.400,293.822 347.497,292.678 348.342 C 291.535 349.187,290.352 350.176,290.051 350.539 C 289.749 350.903,289.247 351.200,288.935 351.200 C 288.246 351.200,286.002 352.735,285.279 353.700 C 284.991 354.085,284.579 354.400,284.364 354.400 C 284.149 354.400,282.652 355.300,281.038 356.400 C 279.424 357.500,277.932 358.400,277.722 358.400 C 277.512 358.400,276.477 359.014,275.421 359.765 C 274.365 360.516,272.727 361.325,271.781 361.563 C 270.835 361.801,269.819 362.238,269.524 362.533 C 268.649 363.408,263.925 365.482,262.225 365.737 C 261.358 365.868,259.807 366.497,258.779 367.137 C 257.750 367.777,255.986 368.606,254.859 368.981 C 253.732 369.355,252.707 369.827,252.581 370.031 C 252.456 370.234,251.823 370.400,251.176 370.400 C 250.529 370.400,249.683 370.715,249.296 371.100 C 248.908 371.485,248.233 371.826,247.796 371.858 C 244.333 372.110,239.701 372.956,238.152 373.620 C 235.872 374.598,227.748 375.600,222.102 375.600 C 218.351 375.600,218.000 375.665,218.000 376.353 C 218.000 377.505,216.986 377.594,201.800 377.773 C 184.524 377.977,179.377 377.692,178.451 376.477 C 177.742 375.548,176.997 375.469,164.473 375.000 L 158.746 374.786 158.873 375.893 C 158.991 376.918,159.149 377.009,160.999 377.126 C 162.209 377.202,163.124 377.478,163.318 377.826 C 163.571 378.276,164.703 378.400,168.573 378.400 C 173.170 378.400,173.521 378.455,173.716 379.200 C 173.922 379.989,174.262 380.000,198.130 380.000 C 222.594 380.000,223.600 379.959,223.600 378.957 C 223.600 378.524,224.367 378.400,227.043 378.400 C 229.939 378.400,230.449 378.305,230.255 377.800 C 230.062 377.297,230.548 377.200,233.250 377.200 C 236.138 377.200,236.497 377.117,236.684 376.400 C 236.858 375.735,237.230 375.600,238.884 375.600 C 240.538 375.600,240.910 375.465,241.084 374.800 C 241.275 374.072,241.630 374.000,245.047 374.000 C 248.355 374.000,248.800 373.917,248.800 373.300 C 248.800 372.707,249.109 372.621,250.827 372.740 C 252.611 372.864,252.880 372.780,253.074 372.040 C 253.268 371.298,253.589 371.200,255.833 371.200 C 257.962 371.200,258.441 371.071,258.800 370.400 C 259.078 369.881,259.638 369.600,260.394 369.600 C 261.036 369.600,261.711 369.331,261.895 369.003 C 262.078 368.674,262.745 368.362,263.376 368.310 C 264.083 368.252,264.594 367.944,264.708 367.508 C 264.856 366.941,265.323 366.800,267.047 366.800 C 268.933 366.800,269.200 366.701,269.200 366.000 C 269.200 365.467,269.467 365.200,270.000 365.200 C 270.444 365.200,270.800 364.933,270.800 364.600 C 270.800 364.169,271.241 364.000,272.367 364.000 C 274.322 364.000,275.200 363.677,275.200 362.957 C 275.200 362.589,275.666 362.400,276.573 362.400 C 277.595 362.400,278.011 362.195,278.200 361.600 C 278.340 361.160,278.712 360.800,279.027 360.800 C 279.342 360.800,279.600 360.530,279.600 360.200 C 279.600 359.778,280.026 359.600,281.037 359.600 C 282.138 359.600,282.524 359.413,282.684 358.800 C 282.799 358.360,283.142 358.000,283.447 358.000 C 283.751 358.000,284.000 357.640,284.000 357.200 C 284.000 356.667,284.267 356.400,284.800 356.400 C 285.333 356.400,285.600 356.133,285.600 355.600 C 285.600 354.977,285.867 354.800,286.809 354.800 C 288.005 354.800,291.200 353.015,291.200 352.347 C 291.200 352.156,291.847 352.000,292.637 352.000 C 293.738 352.000,294.124 351.813,294.284 351.200 C 294.399 350.760,294.759 350.400,295.084 350.400 C 295.409 350.400,295.769 350.040,295.884 349.600 C 295.999 349.160,296.342 348.800,296.647 348.800 C 296.951 348.800,297.200 348.530,297.200 348.200 C 297.200 347.832,297.574 347.600,298.167 347.600 C 299.548 347.600,300.400 347.202,300.400 346.557 C 300.400 346.251,300.670 346.000,301.000 346.000 C 301.330 346.000,301.600 345.730,301.600 345.400 C 301.600 345.070,301.887 344.800,302.237 344.800 C 302.588 344.800,302.969 344.440,303.084 344.000 C 303.199 343.560,303.559 343.200,303.884 343.200 C 304.209 343.200,304.569 342.840,304.684 342.400 C 304.799 341.960,305.130 341.600,305.420 341.600 C 305.709 341.600,306.060 341.240,306.200 340.800 C 306.340 340.360,306.712 340.000,307.027 340.000 C 307.342 340.000,307.600 339.730,307.600 339.400 C 307.600 339.014,307.992 338.798,308.700 338.794 C 309.907 338.787,310.904 338.302,310.805 337.771 C 310.769 337.584,311.037 337.327,311.400 337.200 C 311.763 337.073,312.046 336.841,312.030 336.684 C 311.937 335.797,312.077 335.600,312.800 335.600 C 313.448 335.600,313.600 335.333,313.600 334.200 C 313.600 333.186,313.776 332.800,314.237 332.800 C 314.588 332.800,314.969 332.440,315.084 332.000 C 315.199 331.560,315.548 331.200,315.859 331.200 C 316.170 331.200,316.529 330.930,316.655 330.600 C 316.782 330.270,317.136 330.000,317.443 330.000 C 317.749 330.000,318.000 329.640,318.000 329.200 C 318.000 328.667,318.267 328.400,318.800 328.400 C 319.333 328.400,319.600 328.133,319.600 327.600 C 319.600 327.160,319.825 326.797,320.100 326.793 C 320.710 326.785,322.400 325.058,322.400 324.444 C 322.400 324.200,322.669 324.000,322.997 324.000 C 323.534 324.000,324.727 323.147,326.253 321.671 C 326.554 321.381,326.800 320.779,326.800 320.334 C 326.800 319.862,327.133 319.438,327.600 319.316 C 328.040 319.201,328.400 318.858,328.400 318.553 C 328.400 318.249,328.670 318.000,329.000 318.000 C 329.333 318.000,329.600 317.644,329.600 317.200 C 329.600 316.651,329.882 316.385,330.500 316.354 C 331.177 316.319,331.227 316.262,330.700 316.124 C 330.315 316.024,330.000 315.780,330.000 315.583 C 330.000 315.386,330.270 315.329,330.600 315.455 C 331.034 315.622,331.200 315.411,331.200 314.689 C 331.200 314.030,331.470 313.623,332.000 313.484 C 332.440 313.369,332.800 313.009,332.800 312.684 C 332.800 312.359,333.160 311.999,333.600 311.884 C 334.183 311.732,334.400 311.338,334.400 310.437 C 334.400 309.604,334.596 309.200,335.000 309.200 C 335.333 309.200,335.600 308.844,335.600 308.400 C 335.600 307.867,335.867 307.600,336.400 307.600 C 337.042 307.600,337.200 307.333,337.200 306.247 C 337.200 305.230,337.399 304.841,338.000 304.684 C 338.440 304.569,338.800 304.188,338.800 303.837 C 338.800 303.487,339.067 303.200,339.392 303.200 C 340.042 303.200,340.631 301.497,340.214 300.823 C 340.063 300.578,340.300 300.400,340.776 300.400 C 341.472 300.400,341.600 300.149,341.600 298.782 C 341.600 297.464,341.729 297.187,342.300 297.282 C 342.846 297.374,343.027 297.071,343.124 295.900 C 343.200 294.979,343.454 294.400,343.781 294.400 C 344.363 294.400,344.800 293.547,344.800 292.410 C 344.800 292.012,345.070 291.582,345.400 291.455 C 346.018 291.218,346.240 289.395,345.691 289.057 C 345.522 288.952,345.083 289.034,344.715 289.239 M113.022 356.364 C 112.689 356.903,113.208 358.000,113.796 358.000 C 114.077 358.000,114.407 358.382,114.529 358.849 C 114.707 359.532,114.985 359.664,115.948 359.522 C 116.859 359.389,117.190 359.520,117.335 360.073 C 117.474 360.605,117.910 360.800,118.963 360.800 C 120.133 360.800,120.400 360.948,120.400 361.600 C 120.400 362.040,120.664 362.400,120.986 362.400 C 121.308 362.400,121.765 362.760,122.000 363.200 C 122.280 363.724,122.838 364.000,123.614 364.000 C 124.402 364.000,124.800 364.202,124.800 364.600 C 124.800 365.015,125.217 365.200,126.153 365.200 C 127.170 365.200,127.559 365.399,127.716 366.000 C 127.875 366.606,128.262 366.800,129.316 366.800 C 130.339 366.800,130.758 366.998,130.903 367.550 C 131.035 368.055,131.460 368.300,132.206 368.300 C 132.814 368.300,133.476 368.593,133.676 368.950 C 133.902 369.354,134.562 369.600,135.420 369.600 C 136.533 369.600,136.800 369.755,136.800 370.400 C 136.800 371.103,137.067 371.200,139.000 371.200 C 140.643 371.200,141.200 371.345,141.200 371.773 C 141.200 372.488,142.029 372.746,144.677 372.855 C 145.895 372.906,146.721 373.118,146.677 373.370 C 146.628 373.645,147.681 373.800,149.600 373.800 C 152.261 373.800,152.624 373.890,152.817 374.600 C 153.149 375.827,158.400 376.043,158.400 374.829 C 158.400 373.985,155.407 372.839,153.200 372.838 C 151.316 372.837,147.000 371.840,146.688 371.333 C 146.262 370.643,143.244 369.345,141.301 369.017 C 140.387 368.863,138.817 368.078,137.615 367.174 C 136.051 365.999,135.142 365.600,134.031 365.600 C 132.359 365.600,128.800 364.504,128.800 363.990 C 128.800 363.805,127.573 363.029,126.073 362.265 C 124.573 361.500,122.665 360.413,121.833 359.848 C 121.000 359.283,119.714 358.708,118.974 358.569 C 118.234 358.430,117.420 358.065,117.165 357.758 C 116.910 357.451,116.448 357.200,116.138 357.200 C 115.829 357.200,115.471 356.930,115.345 356.600 C 115.094 355.948,113.387 355.774,113.022 356.364 " stroke="none" fill="#69d5d3" fill-rule="evenodd"></path></g></svg>